<?xml version="1.0" encoding="UTF-8" standalone="no"?>
<svg
   version="1.0"
   x="0px"
   y="0px"
   viewBox="0 0 24 24"
   enable-background="new 0 0 24 24"
   xml:space="preserve"
   id="svg6"
   sodipodi:docname="Calculator_(61747)_-_The_Noun_Project.svg"
   inkscape:version="1.1 (c68e22c387, 2021-05-23)"
   xmlns:inkscape="http://www.inkscape.org/namespaces/inkscape"
   xmlns:sodipodi="http://sodipodi.sourceforge.net/DTD/sodipodi-0.dtd"
   xmlns="http://www.w3.org/2000/svg"
   xmlns:svg="http://www.w3.org/2000/svg"><defs
     id="defs10" /><sodipodi:namedview
     id="namedview8"
     pagecolor="#ffffff"
     bordercolor="#666666"
     borderopacity="1.0"
     inkscape:pageshadow="2"
     inkscape:pageopacity="0.0"
     inkscape:pagecheckerboard="0"
     showgrid="false"
     inkscape:zoom="25.691546"
     inkscape:cx="14.187546"
     inkscape:cy="13.448003"
     inkscape:window-width="1920"
     inkscape:window-height="1057"
     inkscape:window-x="-8"
     inkscape:window-y="-8"
     inkscape:window-maximized="1"
     inkscape:current-layer="svg6" /><path
     d="M18,2H6C4.9,2,4,2.9,4,4v16c0,1.1,0.9,2,2,2h12c1.1,0,2-0.9,2-2V4C20,2.9,19.1,2,18,2z M18,8H6V4h12V8z M9,12H7v-2h2V12z   M13,12h-2v-2h2V12z M9,16H7v-2h2V16z M13,16h-2v-2h2V16z M9,20H7v-2h2V20z M13,20h-2v-2h2V20z M17,12h-2v-2h2V12z M17,16h-2v-2h2  V16z M17,20h-2v-2h2V20z"
     id="path2" /><rect
     x="15"
     y="5"
     width="2"
     height="2"
     id="rect4" /><text
     xml:space="preserve"
     style="font-style:normal;font-variant:normal;font-weight:normal;font-stretch:normal;font-size:5.33333px;line-height:1.25;font-family:'Source Code Pro';-inkscape-font-specification:'Source Code Pro';fill:#ff0000"
     x="7.2050023"
     y="14.217663"
     id="text17064"
     inkscape:transform-center-x="-0.19461655"
     inkscape:transform-center-y="1.012006"><tspan
       sodipodi:role="line"
       id="tspan17062"
       x="7.2050023"
       y="14.217663">CTF</tspan></text></svg>
